<mxfile host="app.diagrams.net" modified="2024-06-27T01:56:18.237Z" agent="Mozilla/5.0 (Windows NT 10.0; Win64; x64) AppleWebKit/537.36 (KHTML, like Gecko) Chrome/126.0.0.0 Safari/537.36 Edg/126.0.0.0" etag="uxiL9JC_umVX_xVqFTOU" version="24.6.1" type="device">
  <diagram name="PÃ¡gina-1" id="Rq8M01iPZ-OZAVoNRbcc">
    <mxGraphModel dx="1116" dy="1138" grid="1" gridSize="10" guides="1" tooltips="1" connect="1" arrows="1" fold="1" page="1" pageScale="1" pageWidth="827" pageHeight="1169" math="0" shadow="0">
      <root>
        <mxCell id="0" />
        <mxCell id="1" parent="0" />
        <mxCell id="yk7yUCoaQNiQJPM7Jmen-8" value="" style="edgeStyle=orthogonalEdgeStyle;rounded=0;orthogonalLoop=1;jettySize=auto;html=1;" edge="1" parent="1" source="yk7yUCoaQNiQJPM7Jmen-1" target="yk7yUCoaQNiQJPM7Jmen-3">
          <mxGeometry relative="1" as="geometry" />
        </mxCell>
        <mxCell id="yk7yUCoaQNiQJPM7Jmen-1" value="inicio" style="strokeWidth=2;html=1;shape=mxgraph.flowchart.start_1;whiteSpace=wrap;" vertex="1" parent="1">
          <mxGeometry x="69" y="20" width="100" height="60" as="geometry" />
        </mxCell>
        <mxCell id="yk7yUCoaQNiQJPM7Jmen-9" value="" style="edgeStyle=orthogonalEdgeStyle;rounded=0;orthogonalLoop=1;jettySize=auto;html=1;" edge="1" parent="1" source="yk7yUCoaQNiQJPM7Jmen-3" target="yk7yUCoaQNiQJPM7Jmen-4">
          <mxGeometry relative="1" as="geometry" />
        </mxCell>
        <mxCell id="yk7yUCoaQNiQJPM7Jmen-3" value="inicializar" style="shape=process;whiteSpace=wrap;html=1;backgroundOutline=1;" vertex="1" parent="1">
          <mxGeometry x="60" y="120" width="120" height="60" as="geometry" />
        </mxCell>
        <mxCell id="yk7yUCoaQNiQJPM7Jmen-10" value="" style="edgeStyle=orthogonalEdgeStyle;rounded=0;orthogonalLoop=1;jettySize=auto;html=1;" edge="1" parent="1" source="yk7yUCoaQNiQJPM7Jmen-4" target="yk7yUCoaQNiQJPM7Jmen-6">
          <mxGeometry relative="1" as="geometry" />
        </mxCell>
        <mxCell id="yk7yUCoaQNiQJPM7Jmen-4" value="processar" style="shape=process;whiteSpace=wrap;html=1;backgroundOutline=1;" vertex="1" parent="1">
          <mxGeometry x="60" y="240" width="120" height="60" as="geometry" />
        </mxCell>
        <mxCell id="yk7yUCoaQNiQJPM7Jmen-12" value="" style="edgeStyle=orthogonalEdgeStyle;rounded=0;orthogonalLoop=1;jettySize=auto;html=1;" edge="1" parent="1" source="yk7yUCoaQNiQJPM7Jmen-6" target="yk7yUCoaQNiQJPM7Jmen-11">
          <mxGeometry relative="1" as="geometry" />
        </mxCell>
        <mxCell id="yk7yUCoaQNiQJPM7Jmen-6" value="finalizar" style="shape=process;whiteSpace=wrap;html=1;backgroundOutline=1;" vertex="1" parent="1">
          <mxGeometry x="60" y="370" width="120" height="60" as="geometry" />
        </mxCell>
        <mxCell id="yk7yUCoaQNiQJPM7Jmen-11" value="fim" style="strokeWidth=2;html=1;shape=mxgraph.flowchart.start_1;whiteSpace=wrap;" vertex="1" parent="1">
          <mxGeometry x="70" y="480" width="100" height="60" as="geometry" />
        </mxCell>
        <mxCell id="yk7yUCoaQNiQJPM7Jmen-16" value="" style="edgeStyle=orthogonalEdgeStyle;rounded=0;orthogonalLoop=1;jettySize=auto;html=1;" edge="1" parent="1" source="yk7yUCoaQNiQJPM7Jmen-13" target="yk7yUCoaQNiQJPM7Jmen-14">
          <mxGeometry relative="1" as="geometry" />
        </mxCell>
        <mxCell id="yk7yUCoaQNiQJPM7Jmen-13" value="inicializar" style="shape=process;whiteSpace=wrap;html=1;backgroundOutline=1;" vertex="1" parent="1">
          <mxGeometry x="380" y="20" width="120" height="60" as="geometry" />
        </mxCell>
        <mxCell id="yk7yUCoaQNiQJPM7Jmen-18" value="" style="edgeStyle=orthogonalEdgeStyle;rounded=0;orthogonalLoop=1;jettySize=auto;html=1;" edge="1" parent="1" source="yk7yUCoaQNiQJPM7Jmen-14" target="yk7yUCoaQNiQJPM7Jmen-17">
          <mxGeometry relative="1" as="geometry" />
        </mxCell>
        <mxCell id="yk7yUCoaQNiQJPM7Jmen-14" value="arquivo_existe = falso" style="rounded=1;whiteSpace=wrap;html=1;absoluteArcSize=1;arcSize=14;strokeWidth=2;" vertex="1" parent="1">
          <mxGeometry x="390" y="120" width="100" height="60" as="geometry" />
        </mxCell>
        <mxCell id="yk7yUCoaQNiQJPM7Jmen-55" value="" style="edgeStyle=orthogonalEdgeStyle;rounded=0;orthogonalLoop=1;jettySize=auto;html=1;" edge="1" parent="1" source="yk7yUCoaQNiQJPM7Jmen-17" target="yk7yUCoaQNiQJPM7Jmen-54">
          <mxGeometry relative="1" as="geometry" />
        </mxCell>
        <mxCell id="yk7yUCoaQNiQJPM7Jmen-17" value="&quot;Arquivo nao existe&quot;" style="strokeWidth=2;html=1;shape=mxgraph.flowchart.display;whiteSpace=wrap;" vertex="1" parent="1">
          <mxGeometry x="390" y="230" width="100" height="60" as="geometry" />
        </mxCell>
        <mxCell id="yk7yUCoaQNiQJPM7Jmen-22" value="" style="edgeStyle=orthogonalEdgeStyle;rounded=0;orthogonalLoop=1;jettySize=auto;html=1;" edge="1" parent="1" source="yk7yUCoaQNiQJPM7Jmen-19" target="yk7yUCoaQNiQJPM7Jmen-21">
          <mxGeometry relative="1" as="geometry" />
        </mxCell>
        <mxCell id="yk7yUCoaQNiQJPM7Jmen-19" value="processar" style="shape=process;whiteSpace=wrap;html=1;backgroundOutline=1;" vertex="1" parent="1">
          <mxGeometry x="630" y="20" width="120" height="60" as="geometry" />
        </mxCell>
        <mxCell id="yk7yUCoaQNiQJPM7Jmen-26" value="" style="edgeStyle=orthogonalEdgeStyle;rounded=0;orthogonalLoop=1;jettySize=auto;html=1;" edge="1" parent="1" source="yk7yUCoaQNiQJPM7Jmen-21" target="yk7yUCoaQNiQJPM7Jmen-25">
          <mxGeometry relative="1" as="geometry" />
        </mxCell>
        <mxCell id="yk7yUCoaQNiQJPM7Jmen-21" value="abrir arquivo cliente" style="rounded=1;whiteSpace=wrap;html=1;absoluteArcSize=1;arcSize=14;strokeWidth=2;" vertex="1" parent="1">
          <mxGeometry x="640" y="120" width="100" height="60" as="geometry" />
        </mxCell>
        <mxCell id="yk7yUCoaQNiQJPM7Jmen-29" value="" style="edgeStyle=orthogonalEdgeStyle;rounded=0;orthogonalLoop=1;jettySize=auto;html=1;" edge="1" parent="1" source="yk7yUCoaQNiQJPM7Jmen-25" target="yk7yUCoaQNiQJPM7Jmen-28">
          <mxGeometry relative="1" as="geometry" />
        </mxCell>
        <mxCell id="yk7yUCoaQNiQJPM7Jmen-25" value="arquivo_fim" style="strokeWidth=2;html=1;shape=mxgraph.flowchart.loop_limit;whiteSpace=wrap;" vertex="1" parent="1">
          <mxGeometry x="640" y="230" width="100" height="60" as="geometry" />
        </mxCell>
        <mxCell id="yk7yUCoaQNiQJPM7Jmen-28" value="ler_linha" style="rounded=1;whiteSpace=wrap;html=1;absoluteArcSize=1;arcSize=14;strokeWidth=2;" vertex="1" parent="1">
          <mxGeometry x="640" y="350" width="100" height="60" as="geometry" />
        </mxCell>
        <mxCell id="yk7yUCoaQNiQJPM7Jmen-33" value="" style="edgeStyle=orthogonalEdgeStyle;rounded=0;orthogonalLoop=1;jettySize=auto;html=1;" edge="1" parent="1" source="yk7yUCoaQNiQJPM7Jmen-30" target="yk7yUCoaQNiQJPM7Jmen-31">
          <mxGeometry relative="1" as="geometry" />
        </mxCell>
        <mxCell id="yk7yUCoaQNiQJPM7Jmen-30" value="qt&amp;gt;0" style="strokeWidth=2;html=1;shape=mxgraph.flowchart.decision;whiteSpace=wrap;" vertex="1" parent="1">
          <mxGeometry x="640" y="450" width="100" height="100" as="geometry" />
        </mxCell>
        <mxCell id="yk7yUCoaQNiQJPM7Jmen-36" value="" style="edgeStyle=orthogonalEdgeStyle;rounded=0;orthogonalLoop=1;jettySize=auto;html=1;" edge="1" parent="1" source="yk7yUCoaQNiQJPM7Jmen-31" target="yk7yUCoaQNiQJPM7Jmen-34">
          <mxGeometry relative="1" as="geometry" />
        </mxCell>
        <mxCell id="yk7yUCoaQNiQJPM7Jmen-37" value="VERDADE" style="edgeLabel;html=1;align=center;verticalAlign=middle;resizable=0;points=[];" vertex="1" connectable="0" parent="yk7yUCoaQNiQJPM7Jmen-36">
          <mxGeometry x="-0.4171" y="4" relative="1" as="geometry">
            <mxPoint as="offset" />
          </mxGeometry>
        </mxCell>
        <mxCell id="yk7yUCoaQNiQJPM7Jmen-31" value="caracter_registro[25] = P" style="strokeWidth=2;html=1;shape=mxgraph.flowchart.decision;whiteSpace=wrap;direction=west;" vertex="1" parent="1">
          <mxGeometry x="600" y="590" width="180" height="120" as="geometry" />
        </mxCell>
        <mxCell id="yk7yUCoaQNiQJPM7Jmen-32" style="edgeStyle=orthogonalEdgeStyle;rounded=0;orthogonalLoop=1;jettySize=auto;html=1;exitX=0.5;exitY=1;exitDx=0;exitDy=0;entryX=0.5;entryY=0;entryDx=0;entryDy=0;entryPerimeter=0;" edge="1" parent="1" source="yk7yUCoaQNiQJPM7Jmen-28" target="yk7yUCoaQNiQJPM7Jmen-30">
          <mxGeometry relative="1" as="geometry" />
        </mxCell>
        <mxCell id="yk7yUCoaQNiQJPM7Jmen-39" value="" style="edgeStyle=orthogonalEdgeStyle;rounded=0;orthogonalLoop=1;jettySize=auto;html=1;" edge="1" parent="1" source="yk7yUCoaQNiQJPM7Jmen-34" target="yk7yUCoaQNiQJPM7Jmen-38">
          <mxGeometry relative="1" as="geometry" />
        </mxCell>
        <mxCell id="yk7yUCoaQNiQJPM7Jmen-34" value="registro" style="rounded=1;whiteSpace=wrap;html=1;absoluteArcSize=1;arcSize=14;strokeWidth=2;" vertex="1" parent="1">
          <mxGeometry x="640" y="780" width="100" height="100" as="geometry" />
        </mxCell>
        <mxCell id="yk7yUCoaQNiQJPM7Jmen-38" value="" style="verticalLabelPosition=bottom;verticalAlign=top;html=1;shape=mxgraph.flowchart.on-page_reference;" vertex="1" parent="1">
          <mxGeometry x="670" y="940" width="40" height="40" as="geometry" />
        </mxCell>
        <mxCell id="yk7yUCoaQNiQJPM7Jmen-40" style="edgeStyle=orthogonalEdgeStyle;rounded=0;orthogonalLoop=1;jettySize=auto;html=1;exitX=0;exitY=0.5;exitDx=0;exitDy=0;exitPerimeter=0;entryX=1;entryY=0.5;entryDx=0;entryDy=0;entryPerimeter=0;" edge="1" parent="1" source="yk7yUCoaQNiQJPM7Jmen-31" target="yk7yUCoaQNiQJPM7Jmen-38">
          <mxGeometry relative="1" as="geometry" />
        </mxCell>
        <mxCell id="yk7yUCoaQNiQJPM7Jmen-41" value="FALSO" style="edgeLabel;html=1;align=center;verticalAlign=middle;resizable=0;points=[];" vertex="1" connectable="0" parent="yk7yUCoaQNiQJPM7Jmen-40">
          <mxGeometry x="-0.2171" y="2" relative="1" as="geometry">
            <mxPoint as="offset" />
          </mxGeometry>
        </mxCell>
        <mxCell id="yk7yUCoaQNiQJPM7Jmen-46" value="" style="edgeStyle=orthogonalEdgeStyle;rounded=0;orthogonalLoop=1;jettySize=auto;html=1;" edge="1" parent="1" source="yk7yUCoaQNiQJPM7Jmen-43" target="yk7yUCoaQNiQJPM7Jmen-45">
          <mxGeometry relative="1" as="geometry" />
        </mxCell>
        <mxCell id="yk7yUCoaQNiQJPM7Jmen-43" value="finalizar" style="shape=process;whiteSpace=wrap;html=1;backgroundOutline=1;" vertex="1" parent="1">
          <mxGeometry x="960" y="20" width="120" height="60" as="geometry" />
        </mxCell>
        <mxCell id="yk7yUCoaQNiQJPM7Jmen-48" value="" style="edgeStyle=orthogonalEdgeStyle;rounded=0;orthogonalLoop=1;jettySize=auto;html=1;" edge="1" parent="1" source="yk7yUCoaQNiQJPM7Jmen-45" target="yk7yUCoaQNiQJPM7Jmen-47">
          <mxGeometry relative="1" as="geometry" />
        </mxCell>
        <mxCell id="yk7yUCoaQNiQJPM7Jmen-45" value="fechar_arquivo" style="rounded=1;whiteSpace=wrap;html=1;absoluteArcSize=1;arcSize=14;strokeWidth=2;" vertex="1" parent="1">
          <mxGeometry x="970" y="120" width="100" height="60" as="geometry" />
        </mxCell>
        <mxCell id="yk7yUCoaQNiQJPM7Jmen-52" value="" style="edgeStyle=orthogonalEdgeStyle;rounded=0;orthogonalLoop=1;jettySize=auto;html=1;" edge="1" parent="1" source="yk7yUCoaQNiQJPM7Jmen-47" target="yk7yUCoaQNiQJPM7Jmen-50">
          <mxGeometry relative="1" as="geometry" />
        </mxCell>
        <mxCell id="yk7yUCoaQNiQJPM7Jmen-47" value="estatistica" style="shape=process;whiteSpace=wrap;html=1;backgroundOutline=1;" vertex="1" parent="1">
          <mxGeometry x="960" y="220" width="120" height="60" as="geometry" />
        </mxCell>
        <mxCell id="yk7yUCoaQNiQJPM7Jmen-50" value="" style="verticalLabelPosition=bottom;verticalAlign=top;html=1;shape=mxgraph.flowchart.on-page_reference;" vertex="1" parent="1">
          <mxGeometry x="1000" y="320" width="40" height="40" as="geometry" />
        </mxCell>
        <mxCell id="yk7yUCoaQNiQJPM7Jmen-54" value="" style="verticalLabelPosition=bottom;verticalAlign=top;html=1;shape=mxgraph.flowchart.on-page_reference;" vertex="1" parent="1">
          <mxGeometry x="420" y="330" width="40" height="40" as="geometry" />
        </mxCell>
        <mxCell id="yk7yUCoaQNiQJPM7Jmen-61" value="" style="edgeStyle=orthogonalEdgeStyle;rounded=0;orthogonalLoop=1;jettySize=auto;html=1;" edge="1" parent="1" source="yk7yUCoaQNiQJPM7Jmen-56" target="yk7yUCoaQNiQJPM7Jmen-57">
          <mxGeometry relative="1" as="geometry" />
        </mxCell>
        <mxCell id="yk7yUCoaQNiQJPM7Jmen-56" value="estatistica" style="shape=process;whiteSpace=wrap;html=1;backgroundOutline=1;" vertex="1" parent="1">
          <mxGeometry x="1190" y="20" width="120" height="60" as="geometry" />
        </mxCell>
        <mxCell id="yk7yUCoaQNiQJPM7Jmen-62" value="" style="edgeStyle=orthogonalEdgeStyle;rounded=0;orthogonalLoop=1;jettySize=auto;html=1;" edge="1" parent="1" source="yk7yUCoaQNiQJPM7Jmen-57" target="yk7yUCoaQNiQJPM7Jmen-59">
          <mxGeometry relative="1" as="geometry" />
        </mxCell>
        <mxCell id="yk7yUCoaQNiQJPM7Jmen-57" value="&quot;o saldo final dos clientes premium&quot;" style="strokeWidth=2;html=1;shape=mxgraph.flowchart.display;whiteSpace=wrap;" vertex="1" parent="1">
          <mxGeometry x="1200" y="120" width="100" height="60" as="geometry" />
        </mxCell>
        <mxCell id="yk7yUCoaQNiQJPM7Jmen-63" value="" style="edgeStyle=orthogonalEdgeStyle;rounded=0;orthogonalLoop=1;jettySize=auto;html=1;" edge="1" parent="1" source="yk7yUCoaQNiQJPM7Jmen-59" target="yk7yUCoaQNiQJPM7Jmen-60">
          <mxGeometry relative="1" as="geometry" />
        </mxCell>
        <mxCell id="yk7yUCoaQNiQJPM7Jmen-59" value="saldo" style="rounded=1;whiteSpace=wrap;html=1;absoluteArcSize=1;arcSize=14;strokeWidth=2;" vertex="1" parent="1">
          <mxGeometry x="1200" y="220" width="100" height="60" as="geometry" />
        </mxCell>
        <mxCell id="yk7yUCoaQNiQJPM7Jmen-60" value="" style="verticalLabelPosition=bottom;verticalAlign=top;html=1;shape=mxgraph.flowchart.on-page_reference;" vertex="1" parent="1">
          <mxGeometry x="1230" y="320" width="40" height="40" as="geometry" />
        </mxCell>
      </root>
    </mxGraphModel>
  </diagram>
</mxfile>
